<?xml version="1.0" standalone="no"?>
<!DOCTYPE svg PUBLIC "-//W3C//DTD SVG 20010904//EN"
 "http://www.w3.org/TR/2001/REC-SVG-20010904/DTD/svg10.dtd">
<svg version="1.0" xmlns="http://www.w3.org/2000/svg"
 width="512.000000pt" height="512.000000pt" viewBox="0 0 512.000000 512.000000"
 preserveAspectRatio="xMidYMid meet">
<metadata>
Created by potrace 1.14, written by Peter Selinger 2001-2017
</metadata>
<g transform="translate(0.000000,512.000000) scale(0.100000,-0.100000)"
fill="#000000" stroke="none">
<path d="M1730 4601 c-143 -44 -218 -181 -176 -324 14 -50 30 -70 129 -173
l113 -117 -1 -511 -1 -511 -23 -45 c-16 -31 -199 -222 -581 -605 -306 -308
-571 -580 -587 -605 -56 -83 -99 -183 -119 -275 -4 -16 -8 -79 -9 -140 -8
-370 239 -688 597 -766 84 -18 146 -19 1500 -19 1516 0 1457 -1 1594 50 238
88 425 311 478 570 10 50 14 110 12 180 -6 154 -45 275 -129 400 -16 25 -283
299 -591 610 -309 311 -567 576 -573 590 -27 60 -30 110 -29 582 l1 497 111
114 c125 129 144 165 140 264 -4 92 -60 178 -144 219 -35 18 -80 19 -862 21
-454 1 -836 -2 -850 -6z m1090 -810 c1 -750 5 -890 29 -969 27 -93 78 -194
129 -257 21 -28 103 -114 181 -192 124 -126 160 -166 134 -150 -38 24 -287 29
-392 10 -42 -8 -130 -32 -196 -53 -200 -65 -257 -75 -410 -74 -129 1 -185 12
-356 66 l-127 41 162 162 c166 166 215 228 267 338 24 53 72 230 68 254 -1 5
-1 260 0 569 l1 561 255 0 255 1 0 -307z"/>
</g>
</svg>
